<mxfile host="app.diagrams.net" modified="2023-02-24T10:36:38.735Z" agent="5.0 (Windows NT 10.0; Win64; x64) AppleWebKit/537.36 (KHTML, like Gecko) Chrome/80.0.3987.162 Safari/537.36" etag="pyYcdwF_iLqYOmVwhAEH" version="20.8.23" type="github">
  <diagram name="Page-1" id="e7e014a7-5840-1c2e-5031-d8a46d1fe8dd">
    <mxGraphModel dx="1420" dy="750" grid="1" gridSize="10" guides="1" tooltips="1" connect="1" arrows="0" fold="1" page="1" pageScale="1" pageWidth="1169" pageHeight="826" background="none" math="0" shadow="0">
      <root>
        <mxCell id="0" />
        <mxCell id="1" parent="0" />
        <mxCell id="2" value="skin_port" style="swimlane;whiteSpace=wrap;swimlaneFillColor=none;" parent="1" vertex="1">
          <mxGeometry x="164.5" y="128" width="280" height="570" as="geometry" />
        </mxCell>
        <mxCell id="3" value="skin_db" style="swimlane;whiteSpace=wrap;aspect=fixed;swimlaneFillColor=none;" parent="1" vertex="1">
          <mxGeometry x="444.5" y="128" width="280" height="570" as="geometry" />
        </mxCell>
        <mxCell id="4" value="skin_lib" style="swimlane;whiteSpace=wrap;startSize=23;swimlaneFillColor=none;horizontal=1;" parent="1" vertex="1">
          <mxGeometry x="724.5" y="128" width="280" height="570" as="geometry" />
        </mxCell>
        <mxCell id="ucOL65wZWcOJnMj6o85P-55" value="cfg" style="swimlane;whiteSpace=wrap;startSize=23;swimlaneFillColor=none;" vertex="1" parent="1">
          <mxGeometry x="1004.5" y="128" width="280" height="570" as="geometry" />
        </mxCell>
        <mxCell id="ucOL65wZWcOJnMj6o85P-61" value="获取皮肤基础信息" style="rounded=0;whiteSpace=wrap;direction=south;html=1;labelBorderColor=none;fontStyle=1;horizontal=1;fontSize=12;fontFamily=Verdana;align=center;verticalAlign=middle;swimlaneFillColor=none;" vertex="1" parent="1">
          <mxGeometry x="104.5" y="151" width="60" height="290" as="geometry" />
        </mxCell>
        <mxCell id="ucOL65wZWcOJnMj6o85P-62" value="皮肤功能流程图" style="rounded=0;whiteSpace=wrap;html=1;labelBorderColor=none;fontFamily=Verdana;fontSize=12;aspect=fixed;swimlaneFillColor=none;" vertex="1" parent="1">
          <mxGeometry x="164.5" y="100" width="1120" height="26.95" as="geometry" />
        </mxCell>
        <mxCell id="ucOL65wZWcOJnMj6o85P-63" value="未命名图层" parent="0" />
        <mxCell id="ucOL65wZWcOJnMj6o85P-64" value="skin_port" style="swimlane;whiteSpace=wrap;swimlaneFillColor=none;" vertex="1" parent="ucOL65wZWcOJnMj6o85P-63">
          <mxGeometry x="164.5" y="128" width="280" height="570" as="geometry" />
        </mxCell>
        <mxCell id="ucOL65wZWcOJnMj6o85P-72" style="edgeStyle=elbowEdgeStyle;rounded=0;orthogonalLoop=1;jettySize=auto;elbow=vertical;html=1;exitX=1;exitY=0.5;exitDx=0;exitDy=0;strokeColor=default;fontFamily=Verdana;fontSize=12;dashed=1;" edge="1" parent="ucOL65wZWcOJnMj6o85P-64" source="ucOL65wZWcOJnMj6o85P-71">
          <mxGeometry relative="1" as="geometry">
            <mxPoint x="925.5" y="92" as="targetPoint" />
          </mxGeometry>
        </mxCell>
        <mxCell id="ucOL65wZWcOJnMj6o85P-71" value="获取皮肤基础信息" style="ellipse;whiteSpace=wrap;html=1;labelBorderColor=none;fontFamily=Verdana;fontSize=12;swimlaneFillColor=none;" vertex="1" parent="ucOL65wZWcOJnMj6o85P-64">
          <mxGeometry x="80.5" y="52" width="120" height="80" as="geometry" />
        </mxCell>
        <mxCell id="ucOL65wZWcOJnMj6o85P-65" value="skin_db" style="swimlane;whiteSpace=wrap;aspect=fixed;swimlaneFillColor=none;dashed=1;" vertex="1" parent="ucOL65wZWcOJnMj6o85P-63">
          <mxGeometry x="444.5" y="128" width="280" height="570" as="geometry" />
        </mxCell>
        <mxCell id="ucOL65wZWcOJnMj6o85P-66" value="skin_lib" style="swimlane;whiteSpace=wrap;startSize=23;swimlaneFillColor=none;horizontal=1;" vertex="1" parent="ucOL65wZWcOJnMj6o85P-63">
          <mxGeometry x="724.5" y="128" width="280" height="570" as="geometry" />
        </mxCell>
        <mxCell id="ucOL65wZWcOJnMj6o85P-68" value="cfg" style="swimlane;whiteSpace=wrap;startSize=23;swimlaneFillColor=none;" vertex="1" parent="ucOL65wZWcOJnMj6o85P-63">
          <mxGeometry x="1004.5" y="128" width="280" height="570" as="geometry" />
        </mxCell>
        <mxCell id="ucOL65wZWcOJnMj6o85P-73" value="读取skin_action配置表找到对应获取皮肤数据MA" style="rounded=0;whiteSpace=wrap;html=1;labelBorderColor=none;fontFamily=Verdana;fontSize=12;" vertex="1" parent="ucOL65wZWcOJnMj6o85P-68">
          <mxGeometry x="85.5" y="62" width="120" height="60" as="geometry" />
        </mxCell>
        <mxCell id="ucOL65wZWcOJnMj6o85P-69" value="获取皮肤基础信息" style="rounded=0;whiteSpace=wrap;direction=south;html=1;labelBorderColor=none;fontStyle=1;horizontal=1;fontSize=12;fontFamily=Verdana;align=center;verticalAlign=middle;swimlaneFillColor=none;" vertex="1" parent="ucOL65wZWcOJnMj6o85P-63">
          <mxGeometry x="104.5" y="151" width="60" height="290" as="geometry" />
        </mxCell>
        <mxCell id="ucOL65wZWcOJnMj6o85P-70" value="皮肤功能流程图" style="rounded=0;whiteSpace=wrap;html=1;labelBorderColor=none;fontFamily=Verdana;fontSize=12;aspect=fixed;swimlaneFillColor=none;" vertex="1" parent="ucOL65wZWcOJnMj6o85P-63">
          <mxGeometry x="164.5" y="100" width="1120" height="26.95" as="geometry" />
        </mxCell>
      </root>
    </mxGraphModel>
  </diagram>
</mxfile>
